<svg width="16" height="16" viewBox="0 0 16 16" fill="none" xmlns="http://www.w3.org/2000/svg">
<rect width="16" height="16" fill="#1A54EA"/>
<path d="M4.328 7.402C4.328 7.63 4.268 7.826 4.148 7.99C4.032 8.154 3.874 8.28 3.674 8.368C3.474 8.456 3.254 8.5 3.014 8.5H0.98V4.24H3.176C3.376 4.24 3.548 4.294 3.692 4.402C3.84 4.506 3.952 4.642 4.028 4.81C4.108 4.974 4.148 5.146 4.148 5.326C4.148 5.534 4.094 5.73 3.986 5.914C3.882 6.094 3.732 6.228 3.536 6.316C3.78 6.388 3.972 6.52 4.112 6.712C4.256 6.9 4.328 7.13 4.328 7.402ZM3.638 7.276C3.638 7.156 3.612 7.048 3.56 6.952C3.512 6.852 3.444 6.772 3.356 6.712C3.272 6.648 3.172 6.616 3.056 6.616H1.652V7.918H3.014C3.134 7.918 3.24 7.89 3.332 7.834C3.428 7.774 3.502 7.696 3.554 7.6C3.61 7.5 3.638 7.392 3.638 7.276ZM1.652 4.822V6.076H2.888C3 6.076 3.1 6.05 3.188 5.998C3.276 5.942 3.346 5.868 3.398 5.776C3.45 5.68 3.476 5.572 3.476 5.452C3.476 5.328 3.452 5.22 3.404 5.128C3.356 5.032 3.29 4.958 3.206 4.906C3.126 4.85 3.032 4.822 2.924 4.822H1.652ZM6.36683 8.56C6.12283 8.56 5.90083 8.518 5.70083 8.434C5.50483 8.346 5.33483 8.228 5.19083 8.08C5.04683 7.928 4.93483 7.756 4.85483 7.564C4.77883 7.368 4.74083 7.16 4.74083 6.94C4.74083 6.644 4.80883 6.374 4.94483 6.13C5.08083 5.882 5.27083 5.684 5.51483 5.536C5.75883 5.384 6.04483 5.308 6.37283 5.308C6.70083 5.308 6.98283 5.384 7.21883 5.536C7.45883 5.684 7.64483 5.88 7.77683 6.124C7.90883 6.368 7.97483 6.63 7.97483 6.91C7.97483 6.958 7.97283 7.004 7.96883 7.048C7.96483 7.088 7.96083 7.122 7.95683 7.15H5.44283C5.45483 7.334 5.50483 7.496 5.59283 7.636C5.68483 7.772 5.80083 7.88 5.94083 7.96C6.08083 8.036 6.23083 8.074 6.39083 8.074C6.56683 8.074 6.73283 8.03 6.88883 7.942C7.04883 7.854 7.15683 7.738 7.21283 7.594L7.77683 7.756C7.70883 7.908 7.60483 8.046 7.46483 8.17C7.32883 8.29 7.16683 8.386 6.97883 8.458C6.79083 8.526 6.58683 8.56 6.36683 8.56ZM5.42483 6.712H7.32083C7.30883 6.532 7.25683 6.374 7.16483 6.238C7.07683 6.098 6.96283 5.99 6.82283 5.914C6.68683 5.834 6.53483 5.794 6.36683 5.794C6.20283 5.794 6.05083 5.834 5.91083 5.914C5.77483 5.99 5.66283 6.098 5.57483 6.238C5.48683 6.374 5.43683 6.532 5.42483 6.712ZM9.92319 8.56C9.67519 8.56 9.45319 8.518 9.25719 8.434C9.06119 8.346 8.89119 8.226 8.74719 8.074C8.60719 7.922 8.49919 7.75 8.42319 7.558C8.34719 7.362 8.30919 7.154 8.30919 6.934C8.30919 6.714 8.34719 6.506 8.42319 6.31C8.49919 6.114 8.60719 5.942 8.74719 5.794C8.89119 5.642 9.06119 5.524 9.25719 5.44C9.45719 5.352 9.67919 5.308 9.92319 5.308C10.1672 5.308 10.3872 5.352 10.5832 5.44C10.7832 5.524 10.9532 5.642 11.0932 5.794C11.2372 5.942 11.3472 6.114 11.4232 6.31C11.4992 6.506 11.5372 6.714 11.5372 6.934C11.5372 7.154 11.4992 7.362 11.4232 7.558C11.3472 7.75 11.2372 7.922 11.0932 8.074C10.9532 8.226 10.7832 8.346 10.5832 8.434C10.3872 8.518 10.1672 8.56 9.92319 8.56ZM8.98719 6.94C8.98719 7.14 9.02919 7.32 9.11319 7.48C9.19719 7.64 9.30919 7.766 9.44919 7.858C9.58919 7.95 9.74719 7.996 9.92319 7.996C10.0952 7.996 10.2512 7.95 10.3912 7.858C10.5352 7.762 10.6492 7.634 10.7332 7.474C10.8172 7.31 10.8592 7.13 10.8592 6.934C10.8592 6.734 10.8172 6.554 10.7332 6.394C10.6492 6.234 10.5352 6.108 10.3912 6.016C10.2512 5.92 10.0952 5.872 9.92319 5.872C9.74719 5.872 9.58919 5.92 9.44919 6.016C9.30919 6.112 9.19719 6.24 9.11319 6.4C9.02919 6.556 8.98719 6.736 8.98719 6.94ZM12.1226 8.5V5.362H12.7826V6.61H14.2406V5.362H14.9006V8.5H14.2406V7.18H12.7826V8.5H12.1226Z" fill="white"/>
<path d="M2.39 12V9.4H4.415V12H4.165V9.625H2.64V12H2.39ZM4.93262 12.01V11.78C5.02262 11.78 5.10428 11.755 5.17762 11.705C5.25095 11.6517 5.31595 11.5633 5.37262 11.44C5.42928 11.3167 5.47428 11.1467 5.50762 10.93C5.54428 10.71 5.56762 10.4333 5.57762 10.1L5.60262 9.4H7.22262V12H6.97262V9.625H5.82762L5.81762 10.115C5.80428 10.4817 5.77595 10.7883 5.73262 11.035C5.69262 11.2783 5.63595 11.4717 5.56262 11.615C5.48928 11.755 5.39928 11.8567 5.29262 11.92C5.18928 11.98 5.06928 12.01 4.93262 12.01ZM9.99035 12.05C9.76368 12.05 9.56368 11.9983 9.39035 11.895C9.21702 11.7883 9.07868 11.6417 8.97535 11.455C8.87202 11.265 8.81368 11.05 8.80035 10.81H8.25035V12H8.00035V9.4H8.25035V10.59H8.80035C8.81702 10.34 8.87702 10.1233 8.98035 9.94C9.08702 9.75667 9.22702 9.61333 9.40035 9.51C9.57702 9.40667 9.77368 9.355 9.99035 9.355C10.2404 9.355 10.457 9.415 10.6404 9.535C10.8237 9.655 10.9654 9.81667 11.0654 10.02C11.1687 10.22 11.2204 10.4483 11.2204 10.705C11.2204 10.9717 11.167 11.2067 11.0604 11.41C10.957 11.61 10.812 11.7667 10.6254 11.88C10.442 11.9933 10.2304 12.05 9.99035 12.05ZM9.99035 11.825C10.187 11.825 10.357 11.7767 10.5004 11.68C10.647 11.5833 10.7604 11.4517 10.8404 11.285C10.9237 11.115 10.9654 10.9217 10.9654 10.705C10.9654 10.475 10.922 10.2767 10.8354 10.11C10.752 9.94 10.637 9.81 10.4904 9.72C10.3437 9.62667 10.177 9.58 9.99035 9.58C9.80368 9.58 9.63868 9.62833 9.49535 9.725C9.35535 9.81833 9.24535 9.95 9.16535 10.12C9.08535 10.29 9.04535 10.485 9.04535 10.705C9.04535 10.9317 9.08535 11.13 9.16535 11.3C9.24869 11.4667 9.36202 11.5967 9.50535 11.69C9.64868 11.78 9.81035 11.825 9.99035 11.825ZM12.9237 12.05C12.7437 12.05 12.5754 12.015 12.4187 11.945C12.262 11.8717 12.1254 11.7733 12.0087 11.65C11.892 11.5233 11.8004 11.3783 11.7337 11.215C11.6704 11.0517 11.6387 10.8767 11.6387 10.69C11.6387 10.44 11.6937 10.215 11.8037 10.015C11.9137 9.815 12.0654 9.655 12.2587 9.535C12.452 9.415 12.672 9.355 12.9187 9.355C13.1554 9.355 13.3637 9.41 13.5437 9.52C13.7237 9.62667 13.8587 9.77333 13.9487 9.96L13.7037 10.04C13.627 9.89667 13.517 9.785 13.3737 9.705C13.2337 9.62167 13.0787 9.58 12.9087 9.58C12.7187 9.58 12.547 9.62833 12.3937 9.725C12.2404 9.82167 12.117 9.955 12.0237 10.125C11.9337 10.2917 11.8887 10.48 11.8887 10.69C11.8887 10.8967 11.9354 11.0867 12.0287 11.26C12.122 11.4333 12.2454 11.5717 12.3987 11.675C12.5554 11.775 12.727 11.825 12.9137 11.825C13.0337 11.825 13.1504 11.8033 13.2637 11.76C13.3804 11.7133 13.4804 11.6533 13.5637 11.58C13.6504 11.5067 13.707 11.4283 13.7337 11.345L13.9787 11.415C13.9354 11.5383 13.8604 11.6483 13.7537 11.745C13.647 11.8383 13.522 11.9133 13.3787 11.97C13.2387 12.0233 13.087 12.05 12.9237 12.05Z" fill="white"/>
</svg>
